<svg width="81" height="61" viewBox="0 0 81 61" fill="none" xmlns="http://www.w3.org/2000/svg">
<g clip-path="url(#clip0_63_14)">
<path d="M0.900879 0.963501H80.9009V60.9635H0.900879V0.963501Z" fill="#012169"/>
<path d="M10.2759 0.963501L40.7759 23.5885L71.1509 0.963501H80.9009V8.7135L50.9009 31.0885L80.9009 53.3385V60.9635H70.9009L40.9009 38.5885L11.0259 60.9635H0.900879V53.4635L30.7759 31.2135L0.900879 8.9635V0.963501H10.2759Z" fill="white"/>
<path d="M53.9009 36.0885L80.9009 55.9635V60.9635L47.0259 36.0885H53.9009ZM30.9009 38.5885L31.6509 42.9635L7.65088 60.9635H0.900879L30.9009 38.5885ZM80.9009 0.963501V1.3385L49.7759 24.8385L50.0259 19.3385L74.6509 0.963501H80.9009ZM0.900879 0.963501L30.7759 22.9635H23.2759L0.900879 6.2135V0.963501Z" fill="#C8102E"/>
<path d="M31.0259 0.963501V60.9635H51.0259V0.963501H31.0259ZM0.900879 20.9635V40.9635H80.9009V20.9635H0.900879Z" fill="white"/>
<path d="M0.900879 25.0885V37.0885H80.9009V25.0885H0.900879ZM35.0259 0.963501V60.9635H47.0259V0.963501H35.0259Z" fill="#C8102E"/>
</g>
<defs>
<clipPath id="clip0_63_14">
<rect width="80" height="60" fill="white" transform="translate(0.900879 0.963501)"/>
</clipPath>
</defs>
</svg>
