<svg width="38" height="37" viewBox="0 0 38 37" fill="none" xmlns="http://www.w3.org/2000/svg">
<rect x="0.333252" width="37" height="37" rx="18.5" fill="white"/>
<path d="M25.8833 11.4101C24.9664 10.4842 23.8743 9.75002 22.6708 9.25042C21.4673 8.75081 20.1764 8.49574 18.8733 8.50005C13.4133 8.50005 8.9633 12.9501 8.9633 18.4101C8.9633 20.1601 9.4233 21.8601 10.2833 23.3601L8.8833 28.5001L14.1333 27.1201C15.5833 27.9101 17.2133 28.3301 18.8733 28.3301C24.3333 28.3301 28.7833 23.8801 28.7833 18.4201C28.7833 15.7701 27.7533 13.2801 25.8833 11.4101ZM18.8733 26.6501C17.3933 26.6501 15.9433 26.2501 14.6733 25.5001L14.3733 25.3201L11.2533 26.1401L12.0833 23.1001L11.8833 22.7901C11.0608 21.4771 10.6242 19.9593 10.6233 18.4101C10.6233 13.8701 14.3233 10.1701 18.8633 10.1701C21.0633 10.1701 23.1333 11.0301 24.6833 12.5901C25.4509 13.3539 26.0592 14.2626 26.4729 15.2634C26.8866 16.2642 27.0975 17.3371 27.0933 18.4201C27.1133 22.9601 23.4133 26.6501 18.8733 26.6501ZM23.3933 20.4901C23.1433 20.3701 21.9233 19.7701 21.7033 19.6801C21.4733 19.6001 21.3133 19.5601 21.1433 19.8001C20.9733 20.0501 20.5033 20.6101 20.3633 20.7701C20.2233 20.9401 20.0733 20.9601 19.8233 20.8301C19.5733 20.7101 18.7733 20.4401 17.8333 19.6001C17.0933 18.9401 16.6033 18.1301 16.4533 17.8801C16.3133 17.6301 16.4333 17.5001 16.5633 17.3701C16.6733 17.2601 16.8133 17.0801 16.9333 16.9401C17.0533 16.8001 17.1033 16.6901 17.1833 16.5301C17.2633 16.3601 17.2233 16.2201 17.1633 16.1001C17.1033 15.9801 16.6033 14.7601 16.4033 14.2601C16.2033 13.7801 15.9933 13.8401 15.8433 13.8301H15.3633C15.1933 13.8301 14.9333 13.8901 14.7033 14.1401C14.4833 14.3901 13.8433 14.9901 13.8433 16.2101C13.8433 17.4301 14.7333 18.6101 14.8533 18.7701C14.9733 18.9401 16.6033 21.4401 19.0833 22.5101C19.6733 22.7701 20.1333 22.9201 20.4933 23.0301C21.0833 23.2201 21.6233 23.1901 22.0533 23.1301C22.5333 23.0601 23.5233 22.5301 23.7233 21.9501C23.9333 21.3701 23.9333 20.8801 23.8633 20.7701C23.7933 20.6601 23.6433 20.6101 23.3933 20.4901Z" fill="black"/>
</svg>
